<?xml version="1.0" encoding="UTF-8" standalone="no"?>
<!-- Generator: Adobe Illustrator 21.0.0, SVG Export Plug-In . SVG Version: 6.00 Build 0)  -->

<svg
   xmlns:dc="http://purl.org/dc/elements/1.1/"
   xmlns:cc="http://creativecommons.org/ns#"
   xmlns:rdf="http://www.w3.org/1999/02/22-rdf-syntax-ns#"
   xmlns:svg="http://www.w3.org/2000/svg"
   xmlns="http://www.w3.org/2000/svg"
   xmlns:sodipodi="http://sodipodi.sourceforge.net/DTD/sodipodi-0.dtd"
   xmlns:inkscape="http://www.inkscape.org/namespaces/inkscape"
   version="1.1"
   id="Layer_1"
   x="0px"
   y="0px"
   viewBox="0 0 520.19999 33.700001"
   xml:space="preserve"
   inkscape:version="0.91 r13725"
   sodipodi:docname="logo.svg"
   width="520.20001"
   height="33.700001"><metadata
     id="metadata3309"><rdf:RDF><cc:Work
         rdf:about=""><dc:format>image/svg+xml</dc:format><dc:type
           rdf:resource="http://purl.org/dc/dcmitype/StillImage" /><dc:title></dc:title></cc:Work></rdf:RDF></metadata><defs
     id="defs3307" /><sodipodi:namedview
     pagecolor="#ffffff"
     bordercolor="#666666"
     borderopacity="1"
     objecttolerance="10"
     gridtolerance="10"
     guidetolerance="10"
     inkscape:pageopacity="0"
     inkscape:pageshadow="2"
     inkscape:window-width="1920"
     inkscape:window-height="1025"
     id="namedview3305"
     showgrid="false"
     fit-margin-top="0"
     fit-margin-left="0"
     fit-margin-right="0"
     fit-margin-bottom="0"
     inkscape:zoom="2.2669682"
     inkscape:cx="273.80811"
     inkscape:cy="21.35"
     inkscape:window-x="0"
     inkscape:window-y="27"
     inkscape:window-maximized="1"
     inkscape:current-layer="Layer_1" /><style
     type="text/css"
     id="style3273">
	.st0{fill:none;stroke:#4A0D59;stroke-width:0.75;stroke-linejoin:round;stroke-miterlimit:10;}
	.st1{fill:#7CEEF7;stroke:#4A0D59;stroke-width:0.75;stroke-linejoin:round;stroke-miterlimit:10;}
	.st2{fill:none;stroke:#FFFFFF;stroke-width:0.25;}
	.st3{fill:none;stroke:#EC008B;stroke-width:0.25;}
	.st4{fill:#2FD9DD;stroke:#FF0068;stroke-width:0.25;}
	.st5{fill:#231F20;stroke:#231F20;stroke-width:0.25;}
	.st6{fill:#EC008B;}
</style><g
     id="g3275"
     transform="translate(-33.9,-30.4)"><path
       class="st6"
       d="m 42.2,52.9 c 0,7.2 0.9,8.4 5.7,8.4 l 0,1.4 -14,0 0,-1.4 c 4.8,0 5.7,-1.2 5.7,-8.4 l 0,-11.5 C 39.6,34.2 38.7,33 33.9,33 l 0,-1.4 10.5,0 10.7,24 10.7,-24 10.4,0 0,1.4 c -4.8,0 -5.8,1.2 -5.8,8.4 l 0,11.5 c 0,7.2 0.9,8.4 5.8,8.4 l 0,1.4 -16.6,0 0,-1.4 c 4.8,0 5.7,-1.2 5.7,-8.4 l 0,-13.9 -11.2,25 -1,0 -10.9,-25 0,13.9 z"
       id="path3277"
       inkscape:connector-curvature="0"
       style="fill:#ec008b" /><path
       class="st6"
       d="m 80.5,62.8 0,-1.4 c 4.8,0 5.7,-1.2 5.7,-8.4 l 0,-11.6 C 86.2,34.2 85.3,33 80.5,33 l 0,-1.4 16.5,0 0,1.4 c -4.8,0 -5.7,1.2 -5.7,8.4 l 0,11.5 c 0,7.2 0.9,8.4 5.7,8.4 l 0,1.4 -16.5,0 z"
       id="path3279"
       inkscape:connector-curvature="0"
       style="fill:#ec008b" /><path
       class="st6"
       d="m 128.7,62.8 c -0.3,-1.3 -0.8,-3 -1.3,-3.5 -2.2,2.7 -6,4.8 -9.5,4.8 -9,0 -16.3,-7.6 -16.3,-16.8 0,-9.1 7.3,-16.8 16.3,-16.8 3.5,0 7.3,2 9.5,4.8 0.5,-0.6 1,-2.4 1.3,-3.5 l 1.4,0 0,12.5 -1.4,0 c -1.4,-6.7 -5.2,-10.9 -10.7,-10.9 -8.1,0 -10.4,8 -10.4,14 0,6.1 2.4,14 10.4,14 5.5,0 9.4,-4.2 10.7,-10.9 l 1.4,0 0,12.5 -1.4,0 z"
       id="path3281"
       inkscape:connector-curvature="0"
       style="fill:#ec008b" /><path
       class="st6"
       d="m 163.7,44.9 0,-3.5 c 0,-7.2 -0.9,-8.4 -5.7,-8.4 l 0,-1.4 16.5,0 0,1.4 c -4.8,0 -5.7,1.2 -5.7,8.4 l 0,11.5 c 0,7.2 0.9,8.4 5.7,8.4 l 0,1.4 -16.5,0 0,-1.4 c 4.8,0 5.7,-1.2 5.7,-8.4 l 0,-5.3 -16.3,0 0,5.3 c 0,7.2 0.9,8.4 5.7,8.4 l 0,1.4 -16.5,0 0,-1.4 c 4.8,0 5.7,-1.2 5.7,-8.4 l 0,-11.5 c 0,-7.2 -0.9,-8.4 -5.7,-8.4 l 0,-1.4 16.5,0 0,1.4 c -4.8,0 -5.7,1.2 -5.7,8.4 l 0,3.5 16.3,0 z"
       id="path3283"
       inkscape:connector-curvature="0"
       style="fill:#ec008b" /><path
       class="st6"
       d="m 188,55.8 c -1.8,4.2 -1.8,5.5 3.9,5.5 l 0,1.5 -13.6,0 0,-1.5 c 4.4,0 5,-0.9 7.4,-6.3 l 10.6,-24.6 1,0 10.6,24.6 c 2.4,5.4 3.2,6.3 7.1,6.3 l 0,1.5 -16.1,0 0,-1.5 c 5.2,0 5.7,-1.2 3.9,-5.5 l -1.4,-3.3 -11.8,0 -1.6,3.3 z m 7.3,-17 -4.8,11 9.5,0 -4.7,-11 z"
       id="path3285"
       inkscape:connector-curvature="0"
       style="fill:#ec008b" /><path
       class="st6"
       d="m 244.2,55.5 0.4,-1.4 1.4,0 -0.6,8.7 -26.9,0 0,-1.4 c 4.8,0 5.7,-1.2 5.7,-8.4 l 0,-11.6 c 0,-7.2 -0.9,-8.4 -5.7,-8.4 l 0,-1.4 25.2,0 0.6,8.6 -1.5,0 -0.4,-1.4 c -0.8,-3.3 -1.7,-4.6 -8.3,-4.6 l -4.8,0 0,10.7 0.4,0 c 7.2,0 7.8,-0.9 7.8,-5.7 l 1.4,0 0,14 -1.4,0 c 0,-4.8 -0.6,-5.7 -7.8,-5.7 l -0.4,0 0,4.2 c 0,7.2 0.9,8.4 5.7,8.4 l 0.9,0 c 6.5,0 7.5,-1.2 8.3,-4.6 z"
       id="path3287"
       inkscape:connector-curvature="0"
       style="fill:#ec008b" /><path
       class="st6"
       d="m 253.1,33.1 0,-1.4 16.5,0 0,1.4 c -4.8,0 -5.7,1.2 -5.7,8.4 l 0,10.4 c 0,7.2 0.9,8.4 5.7,8.4 l 2.5,0 c 6.6,0 7.5,-1.2 8.4,-4.6 l 0.4,-1.4 1.5,0 -0.5,8.7 -28.7,0 0,-1.4 c 4.8,0 5.7,-1.2 5.7,-8.4 l 0,-11.8 c -0.1,-7.2 -1,-8.3 -5.8,-8.3 z"
       id="path3289"
       inkscape:connector-curvature="0"
       style="fill:#ec008b" /><path
       class="st6"
       d="m 296.8,55.8 c -1.8,4.2 -1.8,5.5 3.9,5.5 l 0,1.5 -13.6,0 0,-1.5 c 4.4,0 5,-0.9 7.4,-6.3 l 10.6,-24.6 1,0 10.5,24.6 c 2.4,5.4 3.2,6.3 7.1,6.3 l 0,1.5 -16.1,0 0,-1.5 c 5.2,0 5.7,-1.2 3.9,-5.5 l -1.4,-3.3 -11.8,0 -1.5,3.3 z m 7.3,-17 -4.8,11 9.5,0 -4.7,-11 z"
       id="path3291"
       inkscape:connector-curvature="0"
       style="fill:#ec008b" /><path
       class="st6"
       d="m 365.3,61.4 0,1.4 -16.5,0 0,-1.4 c 4.8,0 5.7,-1.2 5.7,-8.4 l 0,-11.6 c 0,-7.2 -0.9,-8.4 -5.7,-8.4 l 0,-1.4 26,0 0.6,8.6 -1.4,0 -0.4,-1.4 c -0.9,-3.3 -1.7,-4.6 -8.4,-4.6 l -5.6,0 0,10.7 0.4,0 c 7.2,0 7.8,-0.9 7.8,-5.7 l 1.4,0 0,14 -1.4,0 c 0,-4.8 -0.6,-5.7 -7.8,-5.7 l -0.4,0 0,5.3 c 0,7.3 0.9,8.6 5.7,8.6 z"
       id="path3293"
       inkscape:connector-curvature="0"
       style="fill:#ec008b" /><path
       class="st6"
       d="m 385.2,55.8 c -1.8,4.2 -1.8,5.5 3.9,5.5 l 0,1.5 -13.6,0 0,-1.5 c 4.4,0 5,-0.9 7.4,-6.3 l 10.6,-24.6 1,0 10.6,24.6 c 2.4,5.4 3.2,6.3 7.1,6.3 l 0,1.5 -16.2,0 0,-1.5 c 5.2,0 5.7,-1.2 3.9,-5.5 l -1.4,-3.3 -11.8,0 -1.5,3.3 z m 7.3,-17 -4.8,11 9.5,0 -4.7,-11 z"
       id="path3295"
       inkscape:connector-curvature="0"
       style="fill:#ec008b" /><path
       class="st6"
       d="m 415.6,33.1 0,-1.4 16.5,0 0,1.4 c -4.8,0 -5.7,1.2 -5.7,8.4 l 0,10.4 c 0,7.2 0.9,8.4 5.7,8.4 l 2.5,0 c 6.6,0 7.5,-1.2 8.4,-4.6 l 0.4,-1.4 1.5,0 -0.5,8.7 -28.7,0 0,-1.4 c 4.8,0 5.7,-1.2 5.7,-8.4 l 0,-11.8 c -0.1,-7.2 -1,-8.3 -5.8,-8.3 z"
       id="path3297"
       inkscape:connector-curvature="0"
       style="fill:#ec008b" /><path
       class="st6"
       d="m 447.5,33.1 0,-1.4 16.5,0 0,1.4 c -4.8,0 -5.7,1.2 -5.7,8.4 l 0,10.4 c 0,7.2 0.9,8.4 5.7,8.4 l 2.5,0 c 6.6,0 7.5,-1.2 8.4,-4.6 l 0.4,-1.4 1.5,0 -0.5,8.7 -28.7,0 0,-1.4 c 4.8,0 5.7,-1.2 5.7,-8.4 l 0,-11.8 c -0.1,-7.2 -1,-8.3 -5.8,-8.3 z"
       id="path3299"
       inkscape:connector-curvature="0"
       style="fill:#ec008b" /><path
       class="st6"
       d="m 496.7,64 c -9.6,0 -17.6,-7.6 -17.6,-16.8 0,-9.1 7.9,-16.8 17.6,-16.8 9.6,0 17.6,7.6 17.6,16.8 0,9.3 -7.9,16.8 -17.6,16.8 z m 0,-30.9 c -8.6,0 -11.7,7.8 -11.7,14 0,6.3 3.1,14 11.7,14 8.5,0 11.7,-7.8 11.7,-14 0,-6.1 -3.2,-14 -11.7,-14 z"
       id="path3301"
       inkscape:connector-curvature="0"
       style="fill:#ec008b" /><path
       class="st6"
       d="m 517.7,33.1 0,-1.4 8.9,0 19.2,22.8 0,-13 c 0,-7.2 -0.9,-8.4 -5.7,-8.4 l 0,-1.4 14,0 0,1.4 c -4.8,0 -5.7,1.2 -5.7,8.4 l 0,22.5 -1.4,0 -21,-25.1 0,14.1 c 0,7.2 0.9,8.4 5.7,8.4 l 0,1.4 -14,0 0,-1.4 c 4.8,0 5.7,-1.2 5.7,-8.4 l 0,-11.6 c 0,-7.2 -0.9,-8.3 -5.7,-8.3 z"
       id="path3303"
       inkscape:connector-curvature="0"
       style="fill:#ec008b" /></g></svg>